<svg width="50" height="50" viewBox="0 0 50 50" fill="none" xmlns="http://www.w3.org/2000/svg">
<g id="Communication / Bell_Notification">
<path id="Vector" d="M31.2497 35.4167V37.5C31.2497 40.9518 28.4515 43.75 24.9997 43.75C21.5479 43.75 18.7497 40.9518 18.7497 37.5V35.4169M31.2497 35.4167L18.7497 35.4169M31.2497 35.4167H39.583C40.7336 35.4167 41.6664 34.484 41.6664 33.3333V32.1126C41.6664 31.5601 41.4466 31.0305 41.056 30.6397L39.992 29.5756C39.7301 29.3137 39.583 28.9583 39.583 28.5879V20.8333C39.583 20.4658 39.5698 20.1011 39.5423 19.7419M18.7497 35.4169L10.4163 35.417C9.26576 35.417 8.33301 34.4835 8.33301 33.3329V32.1127C8.33301 31.5602 8.55267 31.0311 8.94336 30.6402L10.0074 29.5747C10.2692 29.3128 10.4163 28.9588 10.4163 28.5884V20.8333C10.4163 12.7792 16.9455 6.25001 24.9997 6.25001C26.4822 6.25001 27.913 6.47122 29.261 6.88244M39.5423 19.7419C42.0556 18.3069 43.7497 15.6013 43.7497 12.5C43.7497 7.89763 40.0187 4.16667 35.4163 4.16667C32.9784 4.16667 30.7849 5.21362 29.261 6.88244M39.5423 19.7419C38.3258 20.4364 36.9174 20.8333 35.4163 20.8333C30.814 20.8333 27.083 17.1024 27.083 12.5C27.083 10.3356 27.9081 8.36397 29.261 6.88244M39.5423 19.7419C39.5423 19.7419 39.5423 19.7419 39.5423 19.7419ZM29.261 6.88244C29.262 6.88274 29.263 6.88303 29.2639 6.88333" stroke="#2D283D" stroke-width="4" stroke-linecap="round" stroke-linejoin="round"/>
<circle id="Ellipse 11" cx="35.5" cy="12.5" r="7.5" fill="#B43E3E"/>
</g>
</svg>
