<svg width="120" height="120" viewBox="0 0 120 120" fill="none" xmlns="http://www.w3.org/2000/svg">
<g id="Communication / Mail">
<path id="Vector" d="M22.5 32.5L50.5382 53.0613L50.5484 53.0698C53.9392 55.5564 55.6357 56.8005 57.4938 57.2811C59.1361 57.7058 60.8625 57.7058 62.5049 57.2811C64.3646 56.8 66.066 55.5523 69.4629 53.0613L97.5011 32.5M15 79.001V41.001C15 35.4004 15 32.5981 16.0899 30.459C17.0487 28.5774 18.5774 27.0487 20.459 26.0899C22.5981 25 25.4005 25 31.001 25H89.001C94.6015 25 97.3979 25 99.537 26.0899C101.419 27.0487 102.952 28.5774 103.911 30.459C105 32.596 105 35.395 105 40.9845V79.0179C105 84.6074 105 87.4024 103.911 89.5394C102.952 91.421 101.419 92.9524 99.537 93.9111C97.4 95 94.605 95 89.0155 95H30.9846C25.395 95 22.596 95 20.459 93.9111C18.5774 92.9524 17.0487 91.421 16.0899 89.5394C15 87.4003 15 84.6015 15 79.001Z" stroke="#2D283D" stroke-width="8" stroke-linecap="round" stroke-linejoin="round"/>
</g>
</svg>
