<svg width="120" height="120" viewBox="0 0 120 120" fill="none" xmlns="http://www.w3.org/2000/svg">
<g id="Communication / Phone">
<path id="Vector" d="M47.5123 21.2861C45.9937 17.4895 42.3166 15 38.2276 15H24.4737C19.2415 15 15 19.2405 15 24.4727C15 68.9461 51.0539 105 95.5274 105C100.76 105 105 100.758 105 95.526L105.002 81.7698C105.002 77.6808 102.514 74.0043 98.717 72.4857L85.5347 67.2147C82.1244 65.8506 78.2415 66.4645 75.4198 68.816L72.0177 71.6534C68.0444 74.9645 62.1982 74.7011 58.541 71.044L48.9612 61.4553C45.304 57.7981 45.0337 51.9567 48.3448 47.9834L51.1817 44.5815C53.5331 41.7598 54.1525 37.8758 52.7884 34.4655L47.5123 21.2861Z" stroke="#2D283D" stroke-width="8" stroke-linecap="round" stroke-linejoin="round"/>
</g>
</svg>
